<?xml version="1.0" encoding="utf-8"?>
<!-- Generator: Adobe Illustrator 21.0.0, SVG Export Plug-In . SVG Version: 6.00 Build 0)  -->
<svg version="1.1" id="Layer_1" xmlns="http://www.w3.org/2000/svg" xmlns:xlink="http://www.w3.org/1999/xlink" x="0px" y="0px"
	 width="113.592px" height="5.897px" viewBox="0 0 113.592 5.897" style="enable-background:new 0 0 113.592 5.897;"
	 xml:space="preserve">
<style type="text/css">
	.st0{fill:#FFFFFF;}
</style>
<g>
	<path class="st0" d="M1.645,4.039c-0.232,0-0.364-0.112-0.396-0.337C1.11,3.826,0.984,3.915,0.872,3.969
		C0.759,4.023,0.643,4.05,0.523,4.05c-0.147,0-0.271-0.045-0.372-0.134C0.05,3.828,0,3.71,0,3.562c0-0.12,0.032-0.226,0.096-0.317
		C0.16,3.154,0.249,3.077,0.363,3.013S0.606,2.895,0.75,2.85c0.143-0.044,0.306-0.083,0.488-0.113c0-0.229-0.025-0.388-0.076-0.477
		c-0.05-0.089-0.155-0.134-0.314-0.134c-0.078,0-0.152,0.025-0.224,0.076S0.518,2.32,0.518,2.405c0,0.058-0.02,0.107-0.058,0.146
		C0.42,2.589,0.374,2.609,0.32,2.609c-0.058,0-0.106-0.02-0.146-0.058C0.136,2.512,0.116,2.463,0.116,2.405
		c0-0.135,0.075-0.247,0.224-0.334c0.149-0.087,0.32-0.131,0.514-0.131c0.283,0,0.486,0.062,0.61,0.186s0.186,0.325,0.186,0.604
		v0.877c0,0.151,0.044,0.227,0.133,0.227c0.027,0,0.056-0.009,0.084-0.026c0.029-0.018,0.055-0.038,0.079-0.061l0.081,0.11
		C1.916,3.979,1.788,4.039,1.645,4.039z M1.238,2.917C0.704,3.041,0.436,3.233,0.436,3.492c0,0.089,0.026,0.161,0.079,0.215
		c0.052,0.055,0.117,0.082,0.194,0.082c0.07,0,0.145-0.02,0.224-0.058C1.012,3.692,1.114,3.618,1.238,3.51V2.917z"/>
	<path class="st0" d="M6.675,2.391c-0.106,0.177-0.16,0.398-0.16,0.666c0,0.24,0.058,0.429,0.174,0.567S6.98,3.829,7.212,3.829
		c0.101,0,0.208-0.023,0.32-0.069c0.112-0.047,0.213-0.112,0.302-0.198L7.939,3.69c-0.116,0.12-0.25,0.214-0.401,0.282
		C7.387,4.04,7.23,4.073,7.067,4.073c-0.314,0-0.563-0.095-0.747-0.285S6.044,3.355,6.044,3.056c0-0.167,0.03-0.318,0.09-0.456
		s0.141-0.256,0.241-0.354C6.477,2.147,6.588,2.071,6.71,2.019c0.122-0.052,0.241-0.079,0.357-0.079c0.229,0,0.402,0.041,0.52,0.122
		c0.118,0.082,0.177,0.18,0.177,0.296c0,0.062-0.021,0.119-0.064,0.171S7.592,2.609,7.503,2.609c-0.062,0-0.116-0.023-0.16-0.07
		S7.276,2.439,7.276,2.377c0-0.089-0.02-0.153-0.061-0.192c-0.041-0.039-0.09-0.058-0.148-0.058
		C6.912,2.127,6.782,2.215,6.675,2.391z"/>
	<path class="st0" d="M9.322,3.975V3.853c0.104,0,0.186-0.009,0.244-0.026C9.625,3.809,9.669,3.777,9.7,3.731
		c0.031-0.046,0.052-0.112,0.064-0.198c0.012-0.085,0.017-0.205,0.017-0.36V1.336c0-0.155-0.005-0.275-0.017-0.36
		C9.752,0.891,9.731,0.825,9.7,0.778C9.669,0.732,9.625,0.7,9.566,0.682s-0.14-0.026-0.244-0.026V0.534l0.872-0.146v2.784
		c0,0.151,0.006,0.271,0.02,0.357c0.014,0.087,0.036,0.154,0.067,0.201c0.031,0.046,0.076,0.079,0.134,0.096
		c0.058,0.018,0.137,0.026,0.238,0.026v0.122H9.322z"/>
	<path class="st0" d="M13.797,4.039c-0.232,0-0.364-0.112-0.396-0.337c-0.139,0.124-0.265,0.213-0.377,0.267
		c-0.113,0.054-0.229,0.082-0.349,0.082c-0.147,0-0.271-0.045-0.372-0.134c-0.101-0.089-0.151-0.207-0.151-0.354
		c0-0.12,0.032-0.226,0.096-0.317c0.064-0.091,0.153-0.168,0.267-0.232s0.243-0.118,0.387-0.163
		c0.143-0.044,0.306-0.083,0.488-0.113c0-0.229-0.025-0.388-0.076-0.477c-0.05-0.089-0.155-0.134-0.314-0.134
		c-0.078,0-0.152,0.025-0.224,0.076S12.67,2.32,12.67,2.405c0,0.058-0.02,0.107-0.058,0.146c-0.039,0.039-0.085,0.058-0.14,0.058
		c-0.058,0-0.106-0.02-0.146-0.058c-0.039-0.039-0.058-0.087-0.058-0.146c0-0.135,0.075-0.247,0.224-0.334
		c0.149-0.087,0.32-0.131,0.514-0.131c0.283,0,0.486,0.062,0.61,0.186s0.186,0.325,0.186,0.604v0.877
		c0,0.151,0.044,0.227,0.133,0.227c0.027,0,0.056-0.009,0.084-0.026c0.029-0.018,0.055-0.038,0.079-0.061l0.081,0.11
		C14.068,3.979,13.94,4.039,13.797,4.039z M13.391,2.917c-0.535,0.124-0.802,0.316-0.802,0.575c0,0.089,0.026,0.161,0.079,0.215
		c0.052,0.055,0.117,0.082,0.194,0.082c0.07,0,0.145-0.02,0.224-0.058c0.079-0.039,0.181-0.112,0.305-0.221V2.917z"/>
	<path class="st0" d="M16.916,3.896c-0.134,0.118-0.297,0.177-0.491,0.177c-0.073,0-0.141-0.011-0.203-0.035
		s-0.13-0.054-0.204-0.093c-0.07-0.039-0.118-0.058-0.145-0.058c-0.047,0-0.07,0.062-0.07,0.186h-0.116V3.225h0.116
		c0,0.151,0.058,0.297,0.174,0.438c0.116,0.142,0.271,0.212,0.465,0.212c0.093,0,0.17-0.029,0.232-0.087s0.093-0.128,0.093-0.209
		c0-0.07-0.027-0.133-0.082-0.189s-0.136-0.111-0.244-0.166L16.123,3.05c-0.132-0.069-0.23-0.158-0.294-0.264
		c-0.063-0.106-0.096-0.212-0.096-0.317c0-0.151,0.059-0.277,0.177-0.377c0.118-0.101,0.257-0.151,0.416-0.151
		c0.089,0,0.165,0.01,0.227,0.029c0.062,0.019,0.122,0.044,0.18,0.075c0.039,0.02,0.064,0.029,0.076,0.029
		c0.027,0,0.041-0.044,0.041-0.134h0.122v0.674h-0.122c0-0.132-0.042-0.246-0.127-0.343c-0.085-0.097-0.2-0.145-0.343-0.145
		c-0.197,0-0.296,0.083-0.296,0.25c0,0.066,0.025,0.123,0.076,0.171s0.143,0.109,0.279,0.183l0.279,0.151
		c0.127,0.074,0.227,0.159,0.296,0.256c0.069,0.097,0.104,0.198,0.104,0.302C17.116,3.626,17.049,3.778,16.916,3.896z"/>
	<path class="st0" d="M19.955,3.896c-0.134,0.118-0.297,0.177-0.491,0.177c-0.073,0-0.141-0.011-0.203-0.035
		s-0.13-0.054-0.204-0.093c-0.07-0.039-0.118-0.058-0.145-0.058c-0.047,0-0.07,0.062-0.07,0.186h-0.116V3.225h0.116
		c0,0.151,0.058,0.297,0.174,0.438c0.116,0.142,0.271,0.212,0.465,0.212c0.093,0,0.17-0.029,0.232-0.087s0.093-0.128,0.093-0.209
		c0-0.07-0.027-0.133-0.082-0.189s-0.136-0.111-0.244-0.166L19.162,3.05c-0.132-0.069-0.23-0.158-0.294-0.264
		c-0.063-0.106-0.096-0.212-0.096-0.317c0-0.151,0.059-0.277,0.177-0.377c0.118-0.101,0.257-0.151,0.416-0.151
		c0.089,0,0.165,0.01,0.227,0.029c0.062,0.019,0.122,0.044,0.18,0.075c0.039,0.02,0.064,0.029,0.076,0.029
		c0.027,0,0.041-0.044,0.041-0.134h0.122v0.674h-0.122c0-0.132-0.042-0.246-0.127-0.343c-0.085-0.097-0.2-0.145-0.343-0.145
		c-0.197,0-0.296,0.083-0.296,0.25c0,0.066,0.025,0.123,0.076,0.171s0.143,0.109,0.279,0.183l0.279,0.151
		c0.127,0.074,0.227,0.159,0.296,0.256c0.069,0.097,0.104,0.198,0.104,0.302C20.156,3.626,20.089,3.778,19.955,3.896z"/>
	<path class="st0" d="M21.736,3.975V3.853c0.101,0,0.18-0.009,0.238-0.026c0.058-0.017,0.103-0.049,0.134-0.096
		s0.053-0.113,0.067-0.201c0.014-0.087,0.021-0.206,0.021-0.357V2.882c0-0.151-0.006-0.27-0.018-0.357
		c-0.012-0.087-0.034-0.153-0.067-0.197c-0.033-0.045-0.079-0.076-0.137-0.093s-0.137-0.026-0.238-0.026V2.086l0.872-0.146v1.232
		c0,0.155,0.006,0.275,0.017,0.36c0.012,0.085,0.034,0.151,0.067,0.198c0.033,0.046,0.078,0.079,0.134,0.096
		c0.056,0.018,0.137,0.026,0.241,0.026v0.122H21.736z M22.579,1.296c-0.05,0.05-0.11,0.076-0.18,0.076s-0.13-0.025-0.18-0.076
		s-0.076-0.112-0.076-0.186c0-0.07,0.025-0.13,0.076-0.18s0.11-0.076,0.18-0.076s0.13,0.025,0.18,0.076s0.076,0.11,0.076,0.18
		C22.655,1.183,22.629,1.245,22.579,1.296z"/>
	<path class="st0" d="M25.215,2.391c-0.106,0.177-0.16,0.398-0.16,0.666c0,0.24,0.058,0.429,0.174,0.567s0.291,0.206,0.523,0.206
		c0.101,0,0.208-0.023,0.32-0.069c0.112-0.047,0.213-0.112,0.302-0.198l0.104,0.128c-0.116,0.12-0.25,0.214-0.401,0.282
		c-0.151,0.068-0.308,0.102-0.471,0.102c-0.314,0-0.563-0.095-0.747-0.285s-0.276-0.434-0.276-0.732c0-0.167,0.03-0.318,0.09-0.456
		s0.141-0.256,0.241-0.354c0.101-0.099,0.212-0.174,0.334-0.227c0.122-0.052,0.241-0.079,0.357-0.079
		c0.229,0,0.402,0.041,0.52,0.122c0.118,0.082,0.177,0.18,0.177,0.296c0,0.062-0.021,0.119-0.064,0.171s-0.108,0.079-0.197,0.079
		c-0.062,0-0.116-0.023-0.16-0.07s-0.067-0.101-0.067-0.163c0-0.089-0.02-0.153-0.061-0.192c-0.041-0.039-0.09-0.058-0.148-0.058
		C25.452,2.127,25.322,2.215,25.215,2.391z"/>
	<path class="st0" d="M31.361,4.079h-0.116l-0.686-1.581c-0.054-0.128-0.111-0.217-0.171-0.268s-0.135-0.076-0.224-0.076V2.039
		h1.052v0.116c-0.17,0-0.256,0.055-0.256,0.163c0,0.05,0.016,0.11,0.047,0.18l0.389,0.907l0.477-1.366H32l0.587,1.366l0.314-0.907
		c0.027-0.074,0.041-0.134,0.041-0.18c0-0.108-0.07-0.163-0.209-0.163V2.039h0.813v0.116c-0.101,0-0.183,0.026-0.247,0.079
		s-0.119,0.141-0.166,0.265l-0.581,1.581h-0.116l-0.582-1.342L31.361,4.079z"/>
	<path class="st0" d="M35.33,3.045c0,0.236,0.065,0.426,0.195,0.569c0.13,0.144,0.323,0.215,0.578,0.215
		c0.093,0,0.203-0.025,0.329-0.075s0.229-0.114,0.311-0.192l0.099,0.128c-0.104,0.108-0.238,0.2-0.401,0.273
		c-0.163,0.074-0.324,0.11-0.482,0.11c-0.318,0-0.576-0.104-0.776-0.311c-0.2-0.208-0.299-0.46-0.299-0.759
		c0-0.151,0.03-0.292,0.09-0.421c0.06-0.129,0.141-0.243,0.241-0.34c0.101-0.097,0.216-0.171,0.346-0.224
		c0.129-0.052,0.262-0.079,0.398-0.079c0.225,0,0.417,0.071,0.575,0.212c0.159,0.142,0.238,0.313,0.238,0.515
		c0,0.066-0.008,0.13-0.023,0.192h-1.407C35.334,2.921,35.33,2.983,35.33,3.045z M36.342,2.644c0.011-0.035,0.017-0.073,0.017-0.116
		c0-0.093-0.036-0.175-0.107-0.247c-0.072-0.071-0.179-0.107-0.323-0.107c-0.127,0-0.24,0.043-0.337,0.128
		c-0.097,0.085-0.167,0.2-0.209,0.343H36.342z"/>
	<path class="st0" d="M38.812,4.073h-0.122V1.336c0-0.151-0.007-0.27-0.021-0.357c-0.014-0.087-0.036-0.154-0.067-0.201
		c-0.031-0.046-0.075-0.078-0.133-0.096s-0.138-0.026-0.238-0.026V0.534l0.872-0.146v1.895c0.186-0.229,0.422-0.343,0.709-0.343
		c0.136,0,0.265,0.027,0.387,0.082c0.122,0.054,0.229,0.13,0.322,0.229c0.093,0.099,0.166,0.213,0.218,0.343s0.078,0.267,0.078,0.41
		c0,0.144-0.026,0.28-0.078,0.41c-0.052,0.13-0.125,0.245-0.218,0.346c-0.093,0.101-0.2,0.178-0.322,0.232s-0.251,0.081-0.387,0.081
		c-0.151,0-0.292-0.035-0.421-0.104s-0.237-0.165-0.322-0.285L38.812,4.073z M39.102,3.376c0.054,0.144,0.133,0.257,0.235,0.34
		c0.103,0.083,0.22,0.125,0.352,0.125c0.217,0,0.382-0.077,0.494-0.232c0.112-0.155,0.168-0.356,0.168-0.604
		c0-0.248-0.056-0.448-0.168-0.602c-0.112-0.153-0.277-0.229-0.494-0.229c-0.132,0-0.249,0.042-0.352,0.125
		c-0.103,0.083-0.181,0.195-0.235,0.334V3.376z"/>
	<path class="st0" d="M43.743,3.896c-0.134,0.118-0.297,0.177-0.491,0.177c-0.073,0-0.141-0.011-0.203-0.035
		s-0.13-0.054-0.204-0.093c-0.07-0.039-0.118-0.058-0.145-0.058c-0.047,0-0.07,0.062-0.07,0.186h-0.116V3.225h0.116
		c0,0.151,0.058,0.297,0.174,0.438c0.116,0.142,0.271,0.212,0.465,0.212c0.093,0,0.17-0.029,0.232-0.087s0.093-0.128,0.093-0.209
		c0-0.07-0.027-0.133-0.082-0.189s-0.136-0.111-0.244-0.166L42.95,3.05c-0.132-0.069-0.23-0.158-0.294-0.264
		C42.592,2.68,42.56,2.574,42.56,2.469c0-0.151,0.059-0.277,0.177-0.377c0.118-0.101,0.257-0.151,0.416-0.151
		c0.089,0,0.165,0.01,0.227,0.029c0.062,0.019,0.122,0.044,0.18,0.075c0.039,0.02,0.064,0.029,0.076,0.029
		c0.027,0,0.041-0.044,0.041-0.134h0.122v0.674h-0.122c0-0.132-0.042-0.246-0.127-0.343c-0.085-0.097-0.2-0.145-0.343-0.145
		c-0.197,0-0.296,0.083-0.296,0.25c0,0.066,0.025,0.123,0.076,0.171s0.143,0.109,0.279,0.183l0.279,0.151
		c0.127,0.074,0.227,0.159,0.296,0.256c0.069,0.097,0.104,0.198,0.104,0.302C43.943,3.626,43.876,3.778,43.743,3.896z"/>
	<path class="st0" d="M45.524,3.975V3.853c0.101,0,0.18-0.009,0.238-0.026c0.058-0.017,0.103-0.049,0.134-0.096
		s0.053-0.113,0.067-0.201c0.014-0.087,0.021-0.206,0.021-0.357V2.882c0-0.151-0.006-0.27-0.018-0.357
		c-0.012-0.087-0.034-0.153-0.067-0.197c-0.033-0.045-0.079-0.076-0.137-0.093s-0.137-0.026-0.238-0.026V2.086l0.872-0.146v1.232
		c0,0.155,0.006,0.275,0.017,0.36c0.012,0.085,0.034,0.151,0.067,0.198c0.033,0.046,0.078,0.079,0.134,0.096
		c0.056,0.018,0.137,0.026,0.241,0.026v0.122H45.524z M46.367,1.296c-0.05,0.05-0.11,0.076-0.18,0.076s-0.13-0.025-0.18-0.076
		s-0.076-0.112-0.076-0.186c0-0.07,0.025-0.13,0.076-0.18s0.11-0.076,0.18-0.076s0.13,0.025,0.18,0.076s0.076,0.11,0.076,0.18
		C46.442,1.183,46.417,1.245,46.367,1.296z"/>
	<path class="st0" d="M48.291,2.243v-0.14c0.167-0.035,0.289-0.11,0.366-0.227s0.128-0.275,0.151-0.477h0.197v0.639h0.506v0.204
		h-0.506v1.174c0,0.283,0.087,0.424,0.262,0.424c0.108,0,0.234-0.068,0.378-0.203l0.099,0.099c-0.082,0.101-0.179,0.182-0.293,0.244
		s-0.22,0.093-0.317,0.093c-0.167,0-0.298-0.054-0.395-0.163c-0.097-0.108-0.146-0.273-0.146-0.494V2.243H48.291z"/>
	<path class="st0" d="M51.696,3.045c0,0.236,0.065,0.426,0.195,0.569c0.13,0.144,0.323,0.215,0.578,0.215
		c0.093,0,0.203-0.025,0.329-0.075s0.229-0.114,0.311-0.192l0.099,0.128c-0.104,0.108-0.238,0.2-0.401,0.273
		c-0.163,0.074-0.324,0.11-0.482,0.11c-0.318,0-0.576-0.104-0.776-0.311c-0.2-0.208-0.299-0.46-0.299-0.759
		c0-0.151,0.03-0.292,0.09-0.421c0.06-0.129,0.141-0.243,0.241-0.34c0.101-0.097,0.216-0.171,0.346-0.224
		c0.129-0.052,0.262-0.079,0.398-0.079c0.225,0,0.417,0.071,0.575,0.212c0.159,0.142,0.238,0.313,0.238,0.515
		c0,0.066-0.008,0.13-0.023,0.192h-1.407C51.7,2.921,51.696,2.983,51.696,3.045z M52.708,2.644c0.011-0.035,0.017-0.073,0.017-0.116
		c0-0.093-0.036-0.175-0.107-0.247c-0.072-0.071-0.179-0.107-0.323-0.107c-0.127,0-0.24,0.043-0.337,0.128
		c-0.097,0.085-0.167,0.2-0.209,0.343H52.708z"/>
	<path class="st0" d="M57.694,4.073h-0.122V1.336c0-0.151-0.007-0.27-0.021-0.357c-0.014-0.087-0.036-0.154-0.067-0.201
		C57.454,0.732,57.41,0.7,57.352,0.682s-0.138-0.026-0.238-0.026V0.534l0.872-0.146v1.895c0.186-0.229,0.422-0.343,0.709-0.343
		c0.136,0,0.265,0.027,0.387,0.082c0.122,0.054,0.229,0.13,0.322,0.229c0.093,0.099,0.166,0.213,0.218,0.343s0.078,0.267,0.078,0.41
		c0,0.144-0.026,0.28-0.078,0.41c-0.052,0.13-0.125,0.245-0.218,0.346c-0.093,0.101-0.2,0.178-0.322,0.232s-0.251,0.081-0.387,0.081
		c-0.151,0-0.292-0.035-0.421-0.104s-0.237-0.165-0.322-0.285L57.694,4.073z M57.985,3.376c0.054,0.144,0.133,0.257,0.235,0.34
		c0.103,0.083,0.22,0.125,0.352,0.125c0.217,0,0.382-0.077,0.494-0.232c0.112-0.155,0.168-0.356,0.168-0.604
		c0-0.248-0.056-0.448-0.168-0.602c-0.112-0.153-0.277-0.229-0.494-0.229c-0.132,0-0.249,0.042-0.352,0.125
		c-0.103,0.083-0.181,0.195-0.235,0.334V3.376z"/>
	<path class="st0" d="M61.399,5.233C61.42,5.2,61.457,5.16,61.507,5.114c0.066-0.066,0.122-0.13,0.168-0.192s0.089-0.145,0.128-0.25
		l0.291-0.727l-0.668-1.447c-0.058-0.132-0.114-0.222-0.168-0.271c-0.054-0.048-0.128-0.073-0.221-0.073V2.039h1.029v0.116
		c-0.171,0-0.256,0.041-0.256,0.122c0,0.051,0.023,0.124,0.07,0.221l0.424,0.93l0.372-0.93c0.039-0.093,0.058-0.163,0.058-0.209
		c0-0.089-0.075-0.134-0.227-0.134V2.039h0.814v0.116c-0.093,0-0.173,0.026-0.238,0.079c-0.066,0.052-0.124,0.141-0.174,0.265
		l-1.134,2.83c-0.023,0.062-0.054,0.113-0.093,0.154c-0.039,0.041-0.08,0.061-0.122,0.061c-0.05,0-0.095-0.016-0.134-0.046
		c-0.039-0.031-0.058-0.08-0.058-0.146C61.367,5.306,61.378,5.266,61.399,5.233z"/>
</g>
<g>
	<path class="st0" d="M67.245,1.366h-1.082v1.401h0.726v0.806h-0.726v2.324h-0.784V0.559h1.866V1.366z"/>
	<path class="st0" d="M67.637,0.559h0.784v5.337h-0.784V0.559z"/>
	<path class="st0" d="M69.902,3.115l-0.065-0.247h-0.044v3.028h-0.719V0.559h0.697l0.762,2.781l0.065,0.247h0.043V0.559h0.719v5.337
		h-0.697L69.902,3.115z"/>
	<path class="st0" d="M72.015,5.897V0.559h0.617c0.726,0,1.118,0.145,1.329,0.552c0.203,0.407,0.232,1.075,0.232,2.12
		c0,1.046-0.029,1.707-0.232,2.113c-0.211,0.407-0.603,0.552-1.329,0.552H72.015z M72.799,5.112c0.269,0,0.421-0.029,0.501-0.29
		c0.036-0.123,0.065-0.312,0.073-0.566C73.38,4.001,73.38,3.66,73.38,3.224s0-0.777-0.007-1.031
		c-0.007-0.247-0.036-0.436-0.073-0.566c-0.08-0.254-0.232-0.283-0.501-0.283V5.112z"/>
	<path class="st0" d="M76.088,1.99c0-0.174-0.007-0.37-0.058-0.523c-0.051-0.145-0.131-0.247-0.254-0.247
		c-0.203,0.007-0.269,0.218-0.269,0.53c0,0.182,0.08,0.37,0.196,0.574c0.116,0.203,0.269,0.414,0.421,0.639
		c0.181,0.269,0.363,0.545,0.501,0.813c0.138,0.269,0.232,0.545,0.232,0.835c0,0.356-0.058,0.69-0.225,0.937
		c-0.167,0.247-0.436,0.407-0.864,0.407c-0.501,0-0.784-0.189-0.944-0.479c-0.16-0.29-0.196-0.675-0.196-1.075l0.77-0.073
		c0,0.225,0.007,0.45,0.065,0.617c0.051,0.174,0.138,0.29,0.305,0.29c0.232,0,0.319-0.247,0.319-0.588
		c0-0.174-0.087-0.378-0.203-0.588c-0.065-0.102-0.131-0.21-0.203-0.319c-0.153-0.218-0.32-0.465-0.494-0.733
		c-0.174-0.269-0.305-0.545-0.385-0.828c-0.043-0.138-0.065-0.283-0.065-0.429c0-0.29,0.065-0.603,0.232-0.842
		c0.167-0.232,0.421-0.399,0.791-0.407c0.472-0.007,0.748,0.189,0.9,0.472c0.153,0.29,0.196,0.646,0.196,0.944L76.088,1.99z"/>
	<path class="st0" d="M79.391,4.8c-0.007,0.218-0.051,0.414-0.131,0.581c-0.065,0.145-0.167,0.283-0.312,0.392
		c-0.145,0.116-0.341,0.182-0.603,0.182c-0.262,0-0.465-0.065-0.61-0.182c-0.145-0.109-0.24-0.247-0.305-0.392
		C77.351,5.214,77.307,5.018,77.3,4.8V1.656c0.007-0.211,0.051-0.407,0.131-0.574c0.065-0.145,0.16-0.29,0.305-0.399
		c0.145-0.109,0.349-0.182,0.61-0.182c0.261,0,0.457,0.073,0.603,0.182c0.145,0.109,0.247,0.254,0.312,0.399
		c0.08,0.167,0.124,0.363,0.131,0.574V4.8z M78.607,1.656c0-0.145-0.029-0.247-0.102-0.334c-0.036-0.037-0.094-0.058-0.16-0.058
		c-0.138,0-0.203,0.102-0.232,0.196c-0.022,0.058-0.029,0.123-0.029,0.196V4.8c0,0.152,0.036,0.254,0.109,0.334
		c0.036,0.036,0.087,0.058,0.153,0.058c0.138,0,0.203-0.087,0.232-0.196C78.6,4.945,78.607,4.88,78.607,4.8V1.656z"/>
	<path class="st0" d="M81.293,5.897l-0.501-3.355l-0.029-0.225H80.72v3.58h-0.726V0.559h0.958l0.465,2.44l0.036,0.283h0.015
		l0.036-0.283l0.465-2.44h0.959v5.337h-0.726v-3.58h-0.044l-0.029,0.225l-0.501,3.355H81.293z"/>
	<path class="st0" d="M83.58,0.559h1.793v0.806h-1.009v1.401h0.726v0.857h-0.726v1.467h1.009v0.806H83.58V0.559z"/>
	<path class="st0" d="M88.164,2.759c0-0.068-0.384-0.273-0.384-0.921c0-0.742,0.494-1.424,1.39-1.424
		c0.256,0,0.444,0.043,0.665,0.137c0.162,0.068,0.315,0.162,0.315,0.35c0,0.188-0.094,0.358-0.179,0.443
		c-0.077,0.077-0.128-0.017-0.179-0.077C89.536,0.994,89.297,0.9,88.965,0.9c-0.495,0-0.921,0.452-0.921,0.955
		c0,0.409,0.23,0.767,0.503,0.767c0.213,0,0.316-0.043,0.469-0.043c0.111,0,0.162,0.043,0.162,0.102c0,0.196-0.375,0.367-0.52,0.367
		c-0.136,0-0.307-0.119-0.341-0.119c-0.043,0-0.486,0.188-0.486,0.904c0,0.998,0.784,1.611,1.748,1.611
		c0.716,0,1.765-0.418,1.765-1.808c0-0.179-0.034-0.52-0.102-0.546c-0.23-0.085-0.665-0.239-0.972-0.239
		c-0.324,0-0.554,0.171-0.554,0.486c0,0.409,0.358,0.443,0.622,0.494c0.102,0.017,0.137,0.043,0.137,0.077
		c0,0.085-0.145,0.196-0.264,0.196c-0.077,0-0.153-0.017-0.213-0.034c-0.358-0.111-0.469-0.443-0.469-0.588
		c0-0.691,0.554-1.049,1.143-1.049c0.409,0,1.032,0.401,1.663,0.401c0.29,0,0.477-0.196,0.477-0.477c0-0.46-0.384-0.537-0.716-0.537
		C92.009,1.821,92,1.795,92,1.761c0-0.188,0.179-0.298,0.316-0.298c0.494,0,0.665,0.46,0.665,0.759c0,0.213-0.06,0.418-0.145,0.554
		c-0.179,0.299-0.588,0.46-0.818,0.46c-0.085,0-0.247-0.009-0.315-0.026c-0.06-0.008-0.111-0.034-0.111,0.06
		c0,0.06,0.008,0.188,0.008,0.264c0,0.861-0.614,2.43-2.345,2.43c-1.202,0-1.884-0.784-1.884-1.782
		C87.371,3.211,88.164,2.836,88.164,2.759z"/>
	<path class="st0" d="M95.878,5.897h-0.61l-0.719-5.337h0.726l0.312,2.774l0.014,0.174h0.058l0.022-0.174l0.334-2.774h0.566
		l0.334,2.774l0.022,0.174h0.058l0.014-0.174l0.312-2.774h0.726L97.33,5.897h-0.61L96.357,3.37l-0.044-0.312h-0.029L96.241,3.37
		L95.878,5.897z"/>
	<path class="st0" d="M98.499,0.559h0.784v5.337h-0.784V0.559z"/>
	<path class="st0" d="M100.764,3.115l-0.065-0.247h-0.044v3.028h-0.719V0.559h0.697l0.763,2.781l0.065,0.247h0.043V0.559h0.719
		v5.337h-0.697L100.764,3.115z"/>
	<path class="st0" d="M104.176,5.897l-0.501-3.355l-0.029-0.225h-0.044v3.58h-0.726V0.559h0.958l0.465,2.44l0.036,0.283h0.014
		l0.036-0.283l0.465-2.44h0.959v5.337h-0.726v-3.58h-0.043l-0.029,0.225l-0.501,3.355H104.176z"/>
	<path class="st0" d="M108.503,4.8c-0.007,0.218-0.051,0.414-0.131,0.581c-0.065,0.145-0.167,0.283-0.312,0.392
		c-0.145,0.116-0.341,0.182-0.603,0.182c-0.262,0-0.465-0.065-0.61-0.182c-0.145-0.109-0.24-0.247-0.305-0.392
		c-0.08-0.167-0.123-0.363-0.131-0.581V1.656c0.007-0.211,0.051-0.407,0.131-0.574c0.065-0.145,0.16-0.29,0.305-0.399
		c0.145-0.109,0.349-0.182,0.61-0.182c0.261,0,0.457,0.073,0.603,0.182c0.145,0.109,0.247,0.254,0.312,0.399
		c0.08,0.167,0.124,0.363,0.131,0.574V4.8z M107.719,1.656c0-0.145-0.029-0.247-0.102-0.334c-0.036-0.037-0.094-0.058-0.16-0.058
		c-0.138,0-0.203,0.102-0.232,0.196c-0.022,0.058-0.029,0.123-0.029,0.196V4.8c0,0.152,0.036,0.254,0.109,0.334
		c0.036,0.036,0.087,0.058,0.152,0.058c0.138,0,0.203-0.087,0.232-0.196c0.022-0.051,0.029-0.116,0.029-0.196V1.656z"/>
	<path class="st0" d="M110.507,5.897L110.1,3.646h-0.211v2.251h-0.784V0.559h0.784c0.937,0,1.336,0.53,1.336,1.539
		c0,0.53-0.138,1.009-0.435,1.213l0.501,2.585H110.507z M109.889,2.919c0.109,0,0.254-0.015,0.37-0.116
		c0.116-0.102,0.211-0.298,0.211-0.675c0-0.378-0.094-0.581-0.211-0.683c-0.116-0.102-0.262-0.109-0.37-0.109V2.919z"/>
	<path class="st0" d="M111.799,0.559h1.794v0.806h-1.009v1.401h0.726v0.857h-0.726v1.467h1.009v0.806h-1.794V0.559z"/>
</g>
</svg>
