<svg xmlns="http://www.w3.org/2000/svg" width="113.592" height="6.309" viewBox="0 0 113.592 6.309"><path fill="#939598" d="M66.261 1.331h-1.082v1.401h.726v.806h-.726v2.324h-.784V.524h1.866v.807zm.392-.807h.784v5.337h-.784V.524zm2.265 2.556l-.065-.247h-.044v3.028h-.719V.524h.697l.762 2.781.065.247h.043V.524h.719v5.337h-.697l-.761-2.781zm2.113 2.782V.524h.617c.726 0 1.118.145 1.329.552.203.407.232 1.075.232 2.12 0 1.046-.029 1.707-.232 2.113-.211.407-.603.552-1.329.552l-.617.001zm.784-.785c.269 0 .421-.029.501-.29a2.4 2.4 0 0 0 .073-.566c.007-.255.007-.596.007-1.032s0-.777-.007-1.031a2.4 2.4 0 0 0-.073-.566c-.08-.254-.232-.283-.501-.283v3.768zm3.289-3.122c0-.174-.007-.37-.058-.523-.051-.145-.131-.247-.254-.247-.203.007-.269.218-.269.53 0 .182.08.37.196.574.116.203.269.414.421.639.181.269.363.545.501.813.138.269.232.545.232.835 0 .356-.058.69-.225.937-.167.247-.436.407-.864.407-.501 0-.784-.189-.944-.479s-.196-.675-.196-1.075l.77-.073c0 .225.007.45.065.617.051.174.138.29.305.29.232 0 .319-.247.319-.588 0-.174-.087-.378-.203-.588-.065-.102-.131-.21-.203-.319-.153-.218-.32-.465-.494-.733a3.048 3.048 0 0 1-.385-.828 1.454 1.454 0 0 1-.065-.429c0-.29.065-.603.232-.842a.953.953 0 0 1 .791-.407c.472-.007.748.189.9.472.153.29.196.646.196.944l-.768.073zm3.303 2.81a1.454 1.454 0 0 1-.131.581.995.995 0 0 1-.312.392c-.145.116-.341.182-.603.182-.262 0-.465-.065-.61-.182a.97.97 0 0 1-.305-.392 1.456 1.456 0 0 1-.13-.581V1.621c.004-.198.048-.394.131-.574a.998.998 0 0 1 .305-.399c.178-.125.392-.189.61-.182.261 0 .457.073.603.182.145.109.247.254.312.399.08.167.124.363.131.574l-.001 3.144zm-.784-3.144c0-.145-.029-.247-.102-.334a.22.22 0 0 0-.16-.058c-.138 0-.203.102-.232.196a.565.565 0 0 0-.029.196v3.144c0 .152.036.254.109.334.041.039.096.06.153.058.138 0 .203-.087.232-.196a.502.502 0 0 0 .029-.196V1.621zm2.686 4.241l-.501-3.355-.029-.225h-.043v3.58h-.726V.524h.958l.465 2.44.036.283h.015l.036-.283.465-2.44h.959v5.337h-.726v-3.58h-.044l-.029.225-.501 3.355-.335.001zM82.596.524h1.793v.806H83.38v1.401h.726v.857h-.726v1.467h1.009v.806h-1.793V.524zm4.584 2.2c0-.068-.384-.273-.384-.921 0-.742.494-1.424 1.39-1.424.256 0 .444.043.665.137.162.068.315.162.315.35a.663.663 0 0 1-.179.443c-.077.077-.128-.017-.179-.077-.256-.273-.495-.367-.827-.367-.495 0-.921.452-.921.955 0 .409.23.767.503.767.213 0 .316-.043.469-.043.111 0 .162.043.162.102 0 .196-.375.367-.52.367-.136 0-.307-.119-.341-.119-.043 0-.486.188-.486.904 0 .998.784 1.611 1.748 1.611.716 0 1.765-.418 1.765-1.808 0-.179-.034-.52-.102-.546-.23-.085-.665-.239-.972-.239-.324 0-.554.171-.554.486 0 .409.358.443.622.494.102.017.137.043.137.077 0 .085-.145.196-.264.196a.81.81 0 0 1-.213-.034.663.663 0 0 1-.469-.588c0-.691.554-1.049 1.143-1.049.409 0 1.032.401 1.663.401.29 0 .477-.196.477-.477 0-.46-.384-.537-.716-.537-.087.001-.096-.025-.096-.059 0-.188.179-.298.316-.298.494 0 .665.46.665.759 0 .213-.06.418-.145.554-.179.299-.588.46-.818.46-.085 0-.247-.009-.315-.026-.06-.008-.111-.034-.111.06 0 .06.008.188.008.264 0 .861-.614 2.43-2.345 2.43-1.202 0-1.884-.784-1.884-1.782 0-.971.793-1.346.793-1.423zm7.714 3.138h-.61L93.565.525h.726l.312 2.774.014.174h.058l.022-.174.334-2.774h.566l.334 2.774.022.174h.058l.014-.174.312-2.774h.726l-.717 5.337h-.61l-.363-2.527-.044-.312H95.3l-.043.312-.363 2.527zM97.515.524h.784v5.337h-.784V.524zM99.78 3.08l-.065-.247h-.044v3.028h-.719V.524h.697l.763 2.781.065.247h.043V.524h.719v5.337h-.697L99.78 3.08zm3.412 2.782l-.501-3.355-.029-.225h-.044v3.58h-.726V.524h.958l.465 2.44.036.283h.014l.036-.283.465-2.44h.959v5.337h-.726v-3.58h-.043l-.029.225-.501 3.355-.334.001zm4.327-1.097a1.454 1.454 0 0 1-.131.581.995.995 0 0 1-.312.392c-.145.116-.341.182-.603.182-.262 0-.465-.065-.61-.182a.97.97 0 0 1-.305-.392 1.457 1.457 0 0 1-.131-.581V1.621c.004-.198.048-.394.131-.574a.998.998 0 0 1 .305-.399c.178-.125.392-.189.61-.182.261 0 .457.073.603.182.145.109.247.254.312.399.08.167.124.363.131.574v3.144zm-.784-3.144c0-.145-.029-.247-.102-.334a.22.22 0 0 0-.16-.058c-.138 0-.203.102-.232.196a.565.565 0 0 0-.029.196v3.144c0 .152.036.254.109.334a.21.21 0 0 0 .152.058c.138 0 .203-.087.232-.196a.502.502 0 0 0 .029-.196l.001-3.144zm2.788 4.241l-.407-2.251h-.211v2.251h-.784V.524h.784c.937 0 1.336.53 1.336 1.539 0 .53-.138 1.009-.435 1.213l.501 2.585-.784.001zm-.618-2.978a.544.544 0 0 0 .37-.116c.116-.102.211-.298.211-.675 0-.378-.094-.581-.211-.683-.116-.102-.262-.109-.37-.109v1.583zm1.91-2.36h1.794v.806H111.6v1.401h.726v.857h-.726v1.467h1.009v.806h-1.794V.524z"/><g fill="#939598"><path d="M21.686 3.026V2.42c0-.166-.002-.27-.006-.312s-.022-.076-.054-.099c-.031-.022-.087-.034-.168-.034h-.04v-.087c.152-.003.32-.03.501-.08h.04v2.085c0 .181.003.29.009.329s.026.068.06.088a.423.423 0 0 0 .187.028v.087c-.183.004-.346.02-.488.049a1.246 1.246 0 0 1-.023-.28.996.996 0 0 1-.289.21.71.71 0 0 1-.308.07.676.676 0 0 1-.52-.242.843.843 0 0 1-.219-.587c0-.252.075-.457.224-.612a.71.71 0 0 1 .532-.234c.104 0 .204.019.297.057a.897.897 0 0 1 .265.17zm0 .11a.982.982 0 0 0-.25-.162.636.636 0 0 0-.253-.054.452.452 0 0 0-.357.165c-.096.11-.143.289-.143.538 0 .252.049.438.146.559.098.12.219.18.363.18a.536.536 0 0 0 .267-.068.73.73 0 0 0 .227-.204v-.954zM23.799 3.386h-1.081c-.005.075-.008.13-.008.167 0 .273.043.478.128.614a.42.42 0 0 0 .382.206.5.5 0 0 0 .488-.31h.091a.536.536 0 0 1-.24.303.746.746 0 0 1-.764.008.78.78 0 0 1-.287-.281.829.829 0 0 1-.111-.44c0-.245.072-.449.216-.611a.693.693 0 0 1 .54-.243c.203 0 .36.062.472.186a.638.638 0 0 1 .174.401zm-.331-.075a.778.778 0 0 0 .005-.078.34.34 0 0 0-.097-.259.338.338 0 0 0-.24-.092c-.23 0-.367.143-.411.428h.743v.001zM24.104 4.462v-.509h.074c.086.293.239.441.46.441.096 0 .167-.029.215-.087a.3.3 0 0 0 .071-.191.271.271 0 0 0-.076-.199 1.239 1.239 0 0 0-.301-.188 1.166 1.166 0 0 1-.337-.227.384.384 0 0 1-.102-.271c0-.102.037-.2.11-.292s.176-.139.309-.139c.135 0 .247.055.335.165a.515.515 0 0 0 .074-.138h.07v.479h-.07a.655.655 0 0 0-.146-.296.331.331 0 0 0-.257-.124.248.248 0 0 0-.184.07.225.225 0 0 0-.07.163c0 .068.026.127.078.176.05.05.147.108.29.172.215.097.346.192.394.284a.587.587 0 0 1 .072.269.432.432 0 0 1-.133.329.467.467 0 0 1-.336.127.509.509 0 0 1-.38-.176.421.421 0 0 0-.083.163h-.077v-.001zM25.866 2.799V3.88c0 .166.002.269.007.312a.134.134 0 0 0 .055.099c.031.022.087.034.168.034h.04v.087h-.835v-.087h.064c.09 0 .148-.013.175-.039.027-.025.043-.057.047-.093s.006-.141.006-.313v-.47c0-.182-.008-.292-.025-.333s-.04-.066-.068-.076-.078-.015-.148-.015h-.051v-.087c.225-.022.399-.056.523-.1h.042zm-.366-.791c0-.055.02-.101.058-.14s.084-.059.139-.059c.054 0 .1.02.138.059s.057.085.057.14a.197.197 0 0 1-.057.142.182.182 0 0 1-.138.059.187.187 0 0 1-.139-.059.2.2 0 0 1-.058-.142zM27.54 2.998c.107-.121.216-.182.326-.182.061 0 .107.016.141.049.033.033.05.069.05.108 0 .083-.038.125-.113.125-.042 0-.078-.025-.108-.078-.028-.048-.057-.072-.087-.072-.048 0-.101.033-.159.099a.603.603 0 0 1 .099.33.568.568 0 0 1-.163.401c-.109.117-.292.181-.549.189-.268.009-.401.062-.401.162 0 .047.03.08.091.099.059.021.184.035.375.046.208.01.369.029.481.058s.202.085.269.171.098.188.098.307a.48.48 0 0 1-.205.404c-.136.102-.333.153-.589.153-.235 0-.423-.046-.564-.137-.141-.09-.212-.206-.212-.344 0-.077.02-.14.061-.189a.212.212 0 0 1 .227-.064.401.401 0 0 0-.117.272c0 .111.052.203.156.276.104.072.26.108.467.108.184 0 .328-.037.431-.11a.336.336 0 0 0 .154-.283c0-.127-.046-.216-.138-.268-.092-.05-.256-.08-.492-.091-.271-.011-.448-.045-.528-.101-.081-.054-.121-.124-.121-.21 0-.165.115-.269.346-.312-.12-.071-.21-.151-.271-.242s-.091-.193-.091-.305c0-.158.062-.292.187-.402a.644.644 0 0 1 .442-.166c.21 0 .379.066.507.199zm-.853.413c0 .163.034.282.101.358s.152.114.255.114a.326.326 0 0 0 .248-.113c.068-.075.103-.205.103-.391 0-.187-.037-.315-.11-.386a.35.35 0 0 0-.248-.106c-.116 0-.203.043-.261.131-.059.086-.088.217-.088.393zM28.562 2.799h.051c.029.078.045.185.049.32a.988.988 0 0 1 .286-.24c.1-.053.204-.08.312-.08.124 0 .225.026.304.078s.13.115.152.19c.023.075.034.185.034.328v.485c0 .179.003.289.01.328s.026.068.06.088c.033.02.095.029.185.029v.087h-.793v-.087h.036c.091 0 .15-.014.178-.04s.043-.057.047-.093c.004-.035.006-.14.006-.312v-.5c0-.122-.006-.209-.018-.262-.012-.052-.044-.099-.097-.139s-.119-.061-.2-.061a.468.468 0 0 0-.264.083.882.882 0 0 0-.238.247v.632c0 .179.003.289.011.328a.122.122 0 0 0 .061.088c.033.02.096.029.187.029v.087h-.784v-.087a.449.449 0 0 0 .182-.026.117.117 0 0 0 .063-.081c.008-.035.013-.148.013-.337v-.463c0-.181-.004-.29-.011-.329s-.027-.067-.061-.087c-.033-.02-.096-.029-.187-.029v-.087c.139-.015.281-.044.426-.087zM31.637 3.386h-1.081c-.005.075-.008.13-.008.167 0 .273.043.478.128.614a.42.42 0 0 0 .382.206.5.5 0 0 0 .488-.31h.091a.536.536 0 0 1-.24.303.746.746 0 0 1-.764.008.78.78 0 0 1-.287-.281.829.829 0 0 1-.111-.44c0-.245.072-.449.216-.611a.693.693 0 0 1 .54-.243c.203 0 .36.062.472.186a.638.638 0 0 1 .174.401zm-.331-.075a.778.778 0 0 0 .005-.078.34.34 0 0 0-.097-.259.338.338 0 0 0-.24-.092c-.23 0-.367.143-.411.428h.743v.001zM33.241 3.026V2.42c0-.166-.002-.27-.006-.312s-.022-.076-.054-.099c-.031-.022-.087-.034-.168-.034h-.04v-.087c.152-.003.32-.03.501-.08h.04v2.085c0 .181.003.29.009.329s.026.068.06.088a.423.423 0 0 0 .187.028v.087c-.183.004-.346.02-.488.049a1.246 1.246 0 0 1-.023-.28.996.996 0 0 1-.289.21.71.71 0 0 1-.308.07.676.676 0 0 1-.52-.242.843.843 0 0 1-.219-.587c0-.252.075-.457.224-.612a.71.71 0 0 1 .532-.234c.104 0 .204.019.297.057a.897.897 0 0 1 .265.17zm0 .11a.982.982 0 0 0-.25-.162.636.636 0 0 0-.253-.054.452.452 0 0 0-.357.165c-.096.11-.143.289-.143.538 0 .252.049.438.146.559.098.12.219.18.363.18a.536.536 0 0 0 .267-.068.73.73 0 0 0 .227-.204v-.954zM36.483 4.128h.07c-.012.216-.118.324-.318.324a.29.29 0 0 1-.204-.068.345.345 0 0 1-.098-.202 1.977 1.977 0 0 1-.345.202.699.699 0 0 1-.279.068c-.105 0-.195-.03-.271-.091s-.114-.141-.114-.24c0-.13.063-.244.19-.341s.302-.192.525-.284l.293-.119v-.076c0-.107-.007-.185-.021-.233s-.05-.091-.108-.128a.413.413 0 0 0-.229-.057c-.189 0-.295.063-.316.189-.021.129-.073.193-.159.193-.077 0-.116-.037-.116-.11 0-.072.051-.149.154-.232.102-.083.261-.124.477-.124.16 0 .285.025.373.076.088.05.147.108.175.172s.042.163.042.295v.626c0 .146.007.241.022.282.016.042.048.062.099.062.087.001.138-.06.158-.184zm-.549-.662l-.206.083c-.326.132-.489.299-.489.5 0 .079.021.144.062.192s.096.072.163.072c.059 0 .128-.02.206-.059.079-.039.166-.098.263-.176l.001-.612zM37.127 2.799h.051c.029.078.045.185.049.32a.988.988 0 0 1 .286-.24c.1-.053.204-.08.312-.08.124 0 .225.026.304.078.079.052.13.115.152.19.023.075.034.185.034.328v.485c0 .179.003.289.01.328s.026.068.06.088c.033.02.095.029.185.029v.087h-.793v-.087h.036c.091 0 .15-.014.178-.04s.043-.057.047-.093c.004-.035.006-.14.006-.312v-.5c0-.122-.006-.209-.018-.262-.012-.052-.044-.099-.097-.139s-.119-.061-.2-.061a.468.468 0 0 0-.264.083.882.882 0 0 0-.238.247v.632c0 .179.003.289.011.328a.122.122 0 0 0 .061.088c.033.02.096.029.187.029v.087h-.784v-.087a.449.449 0 0 0 .182-.026.117.117 0 0 0 .063-.081c.008-.035.013-.148.013-.337v-.463c0-.181-.004-.29-.011-.329s-.027-.067-.061-.087c-.033-.02-.096-.029-.187-.029v-.087c.139-.015.281-.044.426-.087zM40.109 3.026V2.42c0-.166-.002-.27-.006-.312s-.022-.076-.054-.099c-.031-.022-.087-.034-.168-.034h-.04v-.087c.152-.003.32-.03.501-.08h.04v2.085c0 .181.003.29.009.329s.026.068.06.088a.423.423 0 0 0 .187.028v.087c-.183.004-.346.02-.488.049a1.246 1.246 0 0 1-.023-.28.996.996 0 0 1-.289.21.71.71 0 0 1-.308.07.676.676 0 0 1-.52-.242.843.843 0 0 1-.219-.587c0-.252.075-.457.224-.612a.71.71 0 0 1 .532-.234c.104 0 .204.019.297.057a.897.897 0 0 1 .265.17zm0 .11a.982.982 0 0 0-.25-.162.64.64 0 0 0-.253-.054.452.452 0 0 0-.357.165c-.096.11-.143.289-.143.538 0 .252.049.438.146.559.098.12.219.18.363.18a.536.536 0 0 0 .267-.068.73.73 0 0 0 .227-.204v-.954zM43.1 3.026V2.42c0-.166-.002-.27-.006-.312s-.022-.076-.054-.099c-.031-.022-.087-.034-.168-.034h-.04v-.087c.152-.003.32-.03.501-.08h.04v2.085c0 .181.003.29.009.329s.026.068.06.088a.423.423 0 0 0 .187.028v.087c-.183.004-.346.02-.488.049a1.246 1.246 0 0 1-.023-.28.996.996 0 0 1-.289.21.71.71 0 0 1-.308.07.676.676 0 0 1-.52-.242.843.843 0 0 1-.219-.587c0-.252.075-.457.224-.612a.71.71 0 0 1 .532-.234c.104 0 .204.019.297.057a.91.91 0 0 1 .265.17zm0 .11a.982.982 0 0 0-.25-.162.636.636 0 0 0-.253-.054.452.452 0 0 0-.357.165c-.096.11-.143.289-.143.538 0 .252.049.438.146.559.098.12.219.18.363.18a.536.536 0 0 0 .267-.068.758.758 0 0 0 .227-.205v-.953zM45.213 3.386h-1.081c-.005.075-.008.13-.008.167 0 .273.043.478.128.614a.42.42 0 0 0 .382.206.5.5 0 0 0 .488-.31h.091a.536.536 0 0 1-.24.303.746.746 0 0 1-.764.008.78.78 0 0 1-.287-.281.829.829 0 0 1-.111-.44c0-.245.072-.449.216-.611a.693.693 0 0 1 .54-.243c.203 0 .36.062.472.186a.638.638 0 0 1 .174.401zm-.331-.075a.778.778 0 0 0 .005-.078.34.34 0 0 0-.097-.259.338.338 0 0 0-.24-.092c-.23 0-.367.143-.411.428h.743v.001zM46.264 4.475h-.109l-.551-1.244a.924.924 0 0 0-.129-.229c-.031-.033-.083-.051-.155-.053v-.087h.701v.087a.435.435 0 0 0-.158.019c-.028.013-.042.037-.042.072 0 .028.025.096.076.203l.418.941.377-.839c.06-.134.089-.221.089-.262 0-.084-.063-.129-.189-.134v-.087h.522v.087a.228.228 0 0 0-.162.081 1.66 1.66 0 0 0-.183.336l-.505 1.109zM48.576 3.386h-1.081c-.005.075-.008.13-.008.167 0 .273.043.478.128.614a.42.42 0 0 0 .382.206.5.5 0 0 0 .488-.31h.091a.536.536 0 0 1-.24.303.746.746 0 0 1-.764.008.78.78 0 0 1-.287-.281.829.829 0 0 1-.111-.44c0-.245.072-.449.216-.611a.693.693 0 0 1 .54-.243c.203 0 .36.062.472.186a.638.638 0 0 1 .174.401zm-.331-.075a.778.778 0 0 0 .005-.078.34.34 0 0 0-.097-.259.338.338 0 0 0-.24-.092c-.23 0-.367.143-.411.428h.743v.001zM49.319 1.809V3.88c0 .166.002.269.006.312s.022.076.054.099c.031.022.088.034.168.034h.045v.087h-.83v-.087h.053c.076 0 .13-.011.162-.031s.051-.05.058-.088.009-.146.009-.326V2.347c0-.163-.014-.266-.043-.308s-.1-.063-.212-.063v-.088a1.715 1.715 0 0 0 .486-.079h.044zM49.798 3.634a.816.816 0 0 1 .825-.835.813.813 0 0 1 .827.835c0 .261-.081.466-.242.616-.162.15-.356.225-.585.225s-.423-.077-.584-.228c-.161-.152-.241-.356-.241-.613zm.314.01c0 .275.044.468.134.578a.456.456 0 0 0 .377.166c.165 0 .292-.055.379-.166.088-.11.132-.303.132-.578 0-.272-.043-.467-.131-.583-.087-.116-.214-.174-.38-.174s-.292.058-.38.173-.131.31-.131.584zM52.072 2.799h.051a.905.905 0 0 1 .032.255.826.826 0 0 1 .26-.192.706.706 0 0 1 .294-.063c.215 0 .394.075.536.226s.214.35.214.598a.887.887 0 0 1-.215.607.717.717 0 0 1-.565.244.665.665 0 0 1-.275-.058.847.847 0 0 1-.249-.171v.589c0 .179.003.288.01.327s.027.068.06.088.094.029.184.029v.088h-.811v-.087h.057c.09 0 .148-.013.175-.038a.152.152 0 0 0 .047-.093c.004-.036.006-.141.006-.313V3.426c0-.165-.002-.27-.006-.312-.004-.043-.022-.076-.054-.099s-.088-.034-.168-.034h-.057v-.087c.126-.013.283-.044.474-.095zm.083 1.322a.75.75 0 0 0 .217.188.48.48 0 0 0 .614-.122c.106-.122.159-.317.159-.584 0-.232-.051-.406-.153-.521s-.224-.172-.365-.172a.504.504 0 0 0-.249.066.777.777 0 0 0-.223.201v.944zM55.162 3.386h-1.081c-.005.075-.008.13-.008.167 0 .273.043.478.128.614a.42.42 0 0 0 .382.206.5.5 0 0 0 .488-.31h.091a.536.536 0 0 1-.24.303.746.746 0 0 1-.764.008.78.78 0 0 1-.287-.281.829.829 0 0 1-.111-.44c0-.245.072-.449.216-.611a.693.693 0 0 1 .54-.243c.203 0 .36.062.472.186a.638.638 0 0 1 .174.401zm-.331-.075a.778.778 0 0 0 .005-.078.34.34 0 0 0-.097-.259.338.338 0 0 0-.24-.092c-.23 0-.367.143-.411.428h.743v.001zM56.766 3.026V2.42c0-.166-.002-.27-.007-.312a.127.127 0 0 0-.054-.099c-.031-.022-.087-.034-.168-.034h-.04v-.087c.152-.003.32-.03.502-.08h.039v2.085c0 .181.004.29.01.329s.026.068.06.088a.423.423 0 0 0 .187.028v.087c-.184.004-.346.02-.488.049a1.189 1.189 0 0 1-.023-.28 1.006 1.006 0 0 1-.288.21.71.71 0 0 1-.308.07.676.676 0 0 1-.52-.242.843.843 0 0 1-.219-.587c0-.252.075-.457.224-.612a.71.71 0 0 1 .532-.234c.104 0 .204.019.297.057a.906.906 0 0 1 .264.17zm0 .11a.982.982 0 0 0-.25-.162.636.636 0 0 0-.253-.054.452.452 0 0 0-.357.165c-.096.11-.143.289-.143.538 0 .252.049.438.146.559.098.12.219.18.363.18a.536.536 0 0 0 .267-.068.73.73 0 0 0 .227-.204v-.954zM58.674 4.475H58.6V2.399c0-.151-.004-.249-.012-.293-.009-.044-.029-.077-.062-.098s-.092-.032-.176-.032v-.088a1.747 1.747 0 0 0 .484-.079h.04v1.228c.088-.08.178-.139.269-.178s.183-.059.276-.059c.224 0 .406.078.549.233a.84.84 0 0 1 .215.595.863.863 0 0 1-.22.605.732.732 0 0 1-.57.242.61.61 0 0 1-.302-.071.595.595 0 0 1-.217-.215.981.981 0 0 0-.2.286zm.199-1.328v.608c0 .157.01.269.031.338a.41.41 0 0 0 .15.197.434.434 0 0 0 .278.095c.163 0 .292-.066.389-.2s.146-.327.146-.578c0-.231-.046-.407-.136-.527s-.211-.181-.36-.181a.562.562 0 0 0-.253.062.898.898 0 0 0-.245.186zM61.22 4.119l.359-.862c.052-.126.078-.196.078-.21 0-.063-.07-.096-.211-.099v-.086h.546v.087c-.085.004-.146.026-.186.067s-.088.131-.146.271l-.69 1.668a1.239 1.239 0 0 1-.175.324c-.05.058-.105.087-.166.087-.082 0-.123-.038-.123-.112 0-.086.065-.158.196-.218a.565.565 0 0 0 .154-.087.358.358 0 0 0 .077-.131l.147-.369-.583-1.25c-.052-.11-.095-.179-.129-.208s-.092-.043-.174-.043v-.086h.712v.087c-.125.004-.188.03-.188.078 0 .019.024.081.073.186l.429.906z"/></g></svg>