<?xml version="1.0" encoding="utf-8"?>
<!-- Generator: Adobe Illustrator 21.1.0, SVG Export Plug-In . SVG Version: 6.00 Build 0)  -->
<svg version="1.1" id="Layer_1" xmlns="http://www.w3.org/2000/svg" xmlns:xlink="http://www.w3.org/1999/xlink" x="0px" y="0px"
	 width="119.4px" height="6.8px" viewBox="0 0 119.4 6.8" style="enable-background:new 0 0 119.4 6.8;" xml:space="preserve">
<style type="text/css">
	.st0{fill:#F13D1D;}
	.st1{fill:#939598;}
</style>
<path d="M5.281,3.957C5.26,3.97,5.236,3.978,5.211,3.978C5.137,3.978,5.1,3.915,5.1,3.789V3.057c0-0.233-0.052-0.401-0.155-0.504
	S4.672,2.398,4.436,2.398c-0.15-0.003-0.298,0.035-0.429,0.109C3.883,2.58,3.82,2.673,3.82,2.786
	C3.819,2.832,3.837,2.875,3.869,2.908c0.033,0.032,0.076,0.049,0.122,0.048c0.002,0,0.005,0,0.007,0
	c0.091-0.003,0.162-0.079,0.158-0.17c0-0.071,0.028-0.127,0.088-0.169s0.122-0.064,0.187-0.064c0.133,0,0.22,0.038,0.262,0.112
	c0.043,0.074,0.063,0.207,0.063,0.398C4.605,3.089,4.469,3.122,4.349,3.158C4.229,3.195,4.121,3.24,4.026,3.293
	C3.931,3.347,3.857,3.411,3.804,3.487C3.75,3.563,3.723,3.651,3.723,3.751C3.718,3.864,3.765,3.974,3.849,4.047
	c0.086,0.075,0.197,0.115,0.31,0.112c0.101,0,0.201-0.023,0.291-0.068c0.114-0.06,0.22-0.135,0.315-0.223
	c0.027,0.188,0.137,0.281,0.33,0.281c0.123-0.001,0.24-0.057,0.319-0.152L5.347,3.906C5.327,3.925,5.305,3.942,5.281,3.957z
	 M4.756,3.708C4.653,3.798,4.567,3.86,4.502,3.892C4.436,3.924,4.373,3.941,4.315,3.941c-0.061,0.001-0.12-0.023-0.162-0.068
	c-0.044-0.046-0.066-0.106-0.066-0.18c0-0.216,0.224-0.376,0.669-0.48V3.708z"/>
<path d="M10.008,3.918C9.924,3.953,9.833,3.974,9.741,3.974c-0.194,0-0.34-0.056-0.436-0.171S9.16,3.53,9.16,3.33
	c0-0.224,0.045-0.408,0.133-0.556c0.089-0.147,0.198-0.22,0.327-0.22C9.666,2.553,9.711,2.57,9.744,2.602
	c0.034,0.033,0.051,0.086,0.051,0.16c0,0.052,0.019,0.096,0.056,0.135s0.082,0.058,0.133,0.058c0.074,0,0.129-0.023,0.164-0.067
	c0.036-0.043,0.053-0.091,0.053-0.143c0-0.097-0.049-0.179-0.148-0.247c-0.097-0.066-0.242-0.1-0.433-0.1
	C9.518,2.4,9.416,2.422,9.322,2.464C9.221,2.507,9.128,2.571,9.043,2.653C8.864,2.832,8.764,3.076,8.767,3.329
	c0,0.249,0.077,0.452,0.23,0.611C9.15,4.099,9.358,4.179,9.62,4.179c0.136,0,0.27-0.028,0.393-0.084
	c0.126-0.056,0.239-0.136,0.335-0.235L10.26,3.751C10.187,3.822,10.102,3.878,10.008,3.918z"/>
<line x1="11.502" y1="4.096" x2="11.502" y2="4.095"/>
<path d="M12.302,3.892c-0.03-0.051-0.049-0.109-0.056-0.168c-0.012-0.072-0.017-0.172-0.017-0.298V1.103l-0.728,0.122v0.102
	c0.087,0,0.154,0.007,0.204,0.022c0.049,0.015,0.086,0.042,0.112,0.08c0.03,0.051,0.048,0.107,0.053,0.165
	c0.01,0.071,0.014,0.171,0.014,0.3v1.533c0,0.129-0.004,0.229-0.014,0.3c-0.005,0.058-0.024,0.115-0.053,0.165
	c-0.027,0.039-0.066,0.068-0.112,0.08c-0.067,0.016-0.135,0.024-0.204,0.022v0.101h1.111V3.993
	c-0.067,0.002-0.134-0.005-0.199-0.022C12.368,3.959,12.329,3.931,12.302,3.892z"/>
<path d="M15.421,3.957C15.4,3.97,15.376,3.978,15.351,3.98c-0.074,0-0.111-0.063-0.111-0.189V3.057c0-0.233-0.052-0.401-0.155-0.504
	s-0.273-0.155-0.509-0.155c-0.15-0.003-0.298,0.035-0.429,0.109C14.023,2.58,13.96,2.673,13.96,2.786
	c-0.001,0.046,0.016,0.09,0.049,0.122s0.076,0.049,0.122,0.048c0.044,0.001,0.086-0.017,0.117-0.048
	c0.032-0.033,0.048-0.073,0.048-0.122c0-0.071,0.028-0.126,0.088-0.169s0.122-0.063,0.187-0.063c0.133,0,0.22,0.038,0.262,0.112
	c0.043,0.074,0.063,0.207,0.063,0.398c-0.152,0.025-0.288,0.058-0.407,0.094c-0.12,0.038-0.228,0.083-0.323,0.136
	s-0.169,0.118-0.223,0.194s-0.08,0.164-0.08,0.265c-0.005,0.112,0.042,0.221,0.126,0.295c0.086,0.075,0.197,0.115,0.31,0.112
	c0.101,0,0.201-0.024,0.291-0.068c0.114-0.06,0.22-0.135,0.315-0.223c0.027,0.188,0.137,0.281,0.33,0.281
	c0.123-0.001,0.24-0.057,0.319-0.152l-0.068-0.092C15.467,3.925,15.445,3.942,15.421,3.957z M14.897,3.708
	c-0.077,0.072-0.162,0.134-0.255,0.184c-0.065,0.032-0.128,0.049-0.186,0.049c-0.061,0.001-0.12-0.023-0.162-0.068
	c-0.044-0.045-0.066-0.105-0.066-0.179c0-0.216,0.223-0.376,0.669-0.48V3.708z"/>
<path d="M17.673,3.183L17.44,3.057c-0.113-0.062-0.19-0.113-0.233-0.153s-0.063-0.088-0.063-0.143c0-0.139,0.083-0.209,0.247-0.209
	c0.109-0.005,0.214,0.04,0.286,0.121c0.07,0.079,0.108,0.181,0.106,0.286h0.102V2.398h-0.102c0,0.075-0.012,0.112-0.034,0.112
	c-0.01,0-0.031-0.008-0.063-0.024c-0.103-0.059-0.221-0.089-0.34-0.087c-0.127-0.002-0.251,0.043-0.347,0.126
	c-0.098,0.083-0.148,0.189-0.148,0.315c0.002,0.094,0.03,0.185,0.08,0.265c0.06,0.095,0.145,0.171,0.245,0.22l0.265,0.145
	c0.09,0.046,0.158,0.092,0.204,0.139s0.068,0.099,0.068,0.158c0,0.068-0.026,0.126-0.078,0.174
	c-0.052,0.048-0.116,0.073-0.194,0.073c-0.15,0.006-0.294-0.06-0.388-0.177c-0.097-0.118-0.145-0.24-0.145-0.365h-0.097v0.708h0.097
	c0-0.103,0.019-0.155,0.058-0.155c0.043,0.008,0.084,0.024,0.121,0.048c0.055,0.029,0.112,0.055,0.17,0.078
	c0.2,0.065,0.42,0.02,0.579-0.119c0.11-0.096,0.172-0.236,0.169-0.381c-0.002-0.091-0.032-0.179-0.087-0.252
	C17.854,3.309,17.77,3.237,17.673,3.183z"/>
<path d="M20.209,3.183l-0.233-0.126c-0.113-0.062-0.19-0.113-0.233-0.153S19.68,2.816,19.68,2.761c0-0.139,0.083-0.209,0.247-0.209
	c0.109-0.005,0.214,0.04,0.286,0.121c0.07,0.079,0.108,0.181,0.106,0.286h0.102V2.398h-0.102c0,0.075-0.012,0.112-0.034,0.112
	c-0.01,0-0.031-0.008-0.063-0.024c-0.103-0.059-0.221-0.089-0.34-0.087c-0.127-0.002-0.251,0.043-0.347,0.126
	c-0.098,0.083-0.148,0.189-0.148,0.315c0.002,0.094,0.03,0.185,0.08,0.265c0.06,0.095,0.145,0.171,0.245,0.22l0.265,0.145
	c0.09,0.046,0.158,0.092,0.204,0.139s0.068,0.099,0.068,0.158c0,0.068-0.026,0.126-0.078,0.174
	c-0.052,0.048-0.116,0.073-0.194,0.073c-0.15,0.006-0.294-0.06-0.388-0.177c-0.097-0.118-0.145-0.24-0.145-0.365h-0.097v0.708h0.097
	c0-0.103,0.019-0.155,0.058-0.155c0.043,0.008,0.084,0.024,0.121,0.048c0.055,0.029,0.112,0.055,0.17,0.078
	c0.2,0.065,0.42,0.02,0.579-0.119c0.11-0.095,0.172-0.235,0.169-0.381c-0.002-0.091-0.032-0.179-0.087-0.252
	C20.39,3.309,20.306,3.237,20.209,3.183z"/>
<line x1="21.861" y1="4.096" x2="21.861" y2="4.095"/>
<path d="M22.658,3.892c-0.031-0.05-0.05-0.107-0.056-0.165c-0.009-0.071-0.014-0.171-0.014-0.3V2.398L21.86,2.52v0.103
	c0.084,0,0.15,0.008,0.199,0.022c0.048,0.014,0.087,0.04,0.114,0.078c0.032,0.049,0.051,0.106,0.056,0.164
	c0.01,0.073,0.015,0.172,0.015,0.298v0.243c0,0.126-0.006,0.225-0.018,0.298c-0.012,0.073-0.03,0.128-0.056,0.168
	c-0.026,0.039-0.063,0.066-0.112,0.08c-0.048,0.014-0.114,0.022-0.199,0.022v0.101h1.111V3.993
	c-0.068,0.003-0.135-0.005-0.201-0.022C22.725,3.958,22.686,3.93,22.658,3.892z"/>
<path d="M22.414,1.924c0.058,0,0.109-0.022,0.15-0.063s0.064-0.097,0.063-0.155c0-0.058-0.022-0.108-0.063-0.15
	c-0.042-0.043-0.092-0.063-0.15-0.063s-0.108,0.022-0.15,0.063c-0.043,0.042-0.063,0.092-0.063,0.15
	c0,0.062,0.022,0.113,0.063,0.155C22.305,1.903,22.355,1.924,22.414,1.924z"/>
<path d="M25.479,3.918c-0.084,0.036-0.175,0.056-0.267,0.058c-0.194,0-0.34-0.057-0.436-0.172s-0.145-0.273-0.145-0.473
	c0-0.224,0.045-0.408,0.134-0.556c0.089-0.147,0.198-0.22,0.325-0.22c0.046-0.001,0.09,0.016,0.123,0.048
	c0.034,0.033,0.051,0.086,0.051,0.16c0,0.052,0.019,0.097,0.056,0.136s0.082,0.058,0.133,0.058c0.074,0,0.129-0.023,0.164-0.066
	s0.053-0.091,0.053-0.143c0-0.097-0.049-0.179-0.148-0.247C25.424,2.434,25.278,2.4,25.087,2.4
	c-0.103,0.002-0.204,0.024-0.298,0.066c-0.104,0.045-0.198,0.11-0.279,0.189c-0.179,0.179-0.279,0.423-0.276,0.676
	c0,0.249,0.077,0.452,0.23,0.611c0.154,0.159,0.361,0.238,0.623,0.238c0.136,0,0.27-0.029,0.393-0.085
	c0.126-0.056,0.239-0.136,0.335-0.235l-0.087-0.107C25.658,3.823,25.572,3.879,25.479,3.918z"/>
<path d="M31.037,2.577c0.116,0,0.174,0.046,0.174,0.136c-0.003,0.052-0.015,0.102-0.034,0.15L30.915,3.62l-0.49-1.14h-0.106
	l-0.398,1.14l-0.325-0.757c-0.026-0.058-0.039-0.108-0.039-0.15c0-0.09,0.072-0.136,0.214-0.136V2.481h-0.878v0.096
	c0.074,0,0.137,0.021,0.187,0.063c0.05,0.043,0.098,0.117,0.143,0.224l0.572,1.319h0.097l0.411-1.119l0.486,1.12h0.097l0.485-1.319
	c0.039-0.104,0.085-0.177,0.139-0.221c0.053-0.044,0.122-0.066,0.206-0.066V2.481h-0.678L31.037,2.577L31.037,2.577z"/>
<path d="M34.123,3.912c-0.105,0.042-0.197,0.063-0.275,0.063c-0.213,0-0.374-0.059-0.482-0.179
	c-0.108-0.119-0.163-0.278-0.163-0.475c0-0.052,0.003-0.104,0.01-0.156h1.174c0.013-0.052,0.019-0.105,0.019-0.16
	c0.001-0.166-0.072-0.323-0.199-0.43c-0.132-0.118-0.292-0.177-0.48-0.177c-0.232,0.002-0.454,0.092-0.621,0.253
	c-0.083,0.081-0.151,0.176-0.201,0.284c-0.05,0.108-0.075,0.225-0.075,0.351c0,0.25,0.083,0.46,0.25,0.633
	c0.167,0.173,0.382,0.259,0.648,0.259c0.139-0.001,0.276-0.033,0.402-0.092c0.136-0.061,0.248-0.138,0.335-0.228l-0.082-0.107
	C34.315,3.817,34.229,3.87,34.123,3.912z M33.422,2.701c0.077-0.069,0.177-0.108,0.281-0.107c0.12,0,0.209,0.03,0.27,0.089
	c0.057,0.054,0.089,0.128,0.089,0.206c0,0.033-0.005,0.065-0.014,0.097v0.001h-0.8C33.277,2.876,33.338,2.777,33.422,2.701z"/>
<path d="M36.944,2.398c-0.231-0.004-0.451,0.102-0.592,0.286V1.103l-0.728,0.122v0.102c0.083,0,0.15,0.007,0.199,0.022
	s0.085,0.042,0.111,0.08c0.03,0.052,0.049,0.109,0.056,0.168c0.012,0.073,0.018,0.172,0.018,0.298v2.284h0.102l0.214-0.325
	c0.071,0.1,0.161,0.18,0.269,0.238c0.108,0.058,0.225,0.087,0.351,0.087c0.225,0,0.44-0.095,0.592-0.261
	c0.158-0.172,0.246-0.397,0.247-0.631c0.002-0.234-0.087-0.459-0.247-0.628C37.382,2.494,37.168,2.4,36.944,2.398z M37.253,3.791
	c-0.093,0.129-0.231,0.194-0.412,0.194c-0.11,0-0.208-0.035-0.294-0.104c-0.09-0.075-0.157-0.173-0.196-0.284v-0.62
	c0.039-0.109,0.107-0.205,0.196-0.279c0.083-0.068,0.187-0.105,0.294-0.104c0.181,0,0.319,0.063,0.412,0.191
	c0.094,0.129,0.14,0.295,0.14,0.502C37.394,3.494,37.347,3.661,37.253,3.791z"/>
<path d="M40.059,3.183l-0.233-0.126c-0.113-0.062-0.19-0.113-0.233-0.153s-0.063-0.088-0.063-0.143c0-0.139,0.083-0.209,0.247-0.209
	c0.109-0.005,0.214,0.04,0.286,0.121c0.07,0.079,0.108,0.181,0.106,0.286h0.102V2.398h-0.102c0,0.075-0.012,0.112-0.034,0.112
	c-0.01,0-0.031-0.008-0.063-0.024c-0.103-0.059-0.221-0.089-0.34-0.087c-0.127-0.002-0.251,0.043-0.347,0.126
	c-0.098,0.083-0.148,0.189-0.148,0.315c0.002,0.094,0.03,0.185,0.08,0.265c0.06,0.095,0.145,0.171,0.245,0.22l0.265,0.145
	c0.09,0.046,0.158,0.092,0.204,0.139c0.046,0.047,0.068,0.099,0.068,0.158c0,0.068-0.026,0.126-0.078,0.174
	c-0.052,0.048-0.116,0.073-0.194,0.073c-0.15,0.006-0.294-0.06-0.388-0.177c-0.097-0.118-0.145-0.24-0.145-0.365h-0.097v0.708h0.097
	c0-0.103,0.019-0.155,0.058-0.155c0.043,0.008,0.084,0.024,0.121,0.048c0.055,0.029,0.112,0.055,0.17,0.078
	c0.2,0.065,0.421,0.02,0.579-0.119c0.11-0.096,0.172-0.236,0.169-0.381c-0.002-0.091-0.032-0.179-0.087-0.252
	C40.239,3.309,40.155,3.237,40.059,3.183z"/>
<line x1="41.71" y1="4.096" x2="41.71" y2="4.095"/>
<path d="M42.508,3.892c-0.031-0.05-0.05-0.107-0.056-0.165c-0.009-0.071-0.014-0.171-0.014-0.3V2.398L41.71,2.52v0.103
	c0.084,0,0.15,0.008,0.199,0.022c0.048,0.014,0.087,0.04,0.114,0.078c0.032,0.049,0.051,0.106,0.056,0.164
	c0.01,0.073,0.015,0.172,0.015,0.298v0.243c0,0.126-0.006,0.225-0.018,0.298c-0.012,0.073-0.03,0.128-0.056,0.168
	c-0.026,0.039-0.063,0.066-0.112,0.08c-0.048,0.014-0.114,0.022-0.199,0.022v0.101h1.111V3.993
	c-0.068,0.003-0.135-0.005-0.201-0.022C42.574,3.958,42.535,3.93,42.508,3.892z"/>
<path d="M42.263,1.924c0.058,0,0.108-0.022,0.15-0.063c0.041-0.041,0.064-0.097,0.063-0.155c0-0.058-0.022-0.108-0.063-0.15
	c-0.042-0.043-0.092-0.063-0.15-0.063s-0.108,0.022-0.15,0.063c-0.043,0.042-0.063,0.092-0.063,0.15
	c0,0.062,0.022,0.113,0.063,0.155C42.155,1.903,42.205,1.924,42.263,1.924z"/>
<path d="M44.833,3.983c-0.146,0-0.219-0.118-0.219-0.354v-0.98h0.422v-0.17h-0.422V1.947h-0.164c-0.019,0.169-0.062,0.3-0.126,0.398
	c-0.064,0.098-0.166,0.16-0.305,0.189v0.117h0.252v0.979c0,0.184,0.041,0.322,0.122,0.412c0.084,0.092,0.205,0.142,0.33,0.136
	c0.081,0,0.169-0.026,0.265-0.078c0.094-0.051,0.175-0.119,0.243-0.203l-0.083-0.083C45.029,3.928,44.923,3.983,44.833,3.983z"/>
<path d="M47.78,3.912c-0.105,0.042-0.197,0.063-0.275,0.063c-0.213,0-0.374-0.059-0.482-0.179c-0.108-0.119-0.163-0.278-0.163-0.475
	c0-0.052,0.003-0.104,0.01-0.156h1.174c0.013-0.052,0.019-0.105,0.019-0.16c0.001-0.166-0.072-0.323-0.199-0.43
	c-0.132-0.118-0.292-0.177-0.48-0.177c-0.232,0.002-0.454,0.092-0.621,0.253c-0.083,0.081-0.151,0.176-0.201,0.284
	c-0.05,0.108-0.075,0.225-0.075,0.351c0,0.25,0.083,0.46,0.25,0.633c0.167,0.173,0.382,0.259,0.648,0.259
	c0.139-0.001,0.276-0.033,0.402-0.092c0.136-0.061,0.248-0.138,0.335-0.228l-0.083-0.107C47.971,3.817,47.885,3.87,47.78,3.912z
	 M47.079,2.701c0.077-0.069,0.177-0.108,0.281-0.107c0.12,0,0.209,0.03,0.269,0.089c0.057,0.054,0.089,0.128,0.089,0.206
	c0,0.033-0.005,0.065-0.014,0.097v0.001h-0.8C46.934,2.876,46.994,2.777,47.079,2.701z"/>
<path d="M52.7,2.398c-0.231-0.004-0.451,0.102-0.592,0.286V1.103L51.38,1.225v0.102c0.083,0,0.15,0.007,0.199,0.022
	c0.048,0.015,0.085,0.042,0.11,0.08c0.03,0.052,0.049,0.109,0.056,0.168c0.012,0.073,0.018,0.172,0.018,0.298v2.284h0.102
	l0.215-0.325c0.071,0.1,0.161,0.18,0.269,0.238c0.108,0.058,0.225,0.087,0.351,0.087c0.225,0,0.44-0.095,0.592-0.261
	c0.158-0.172,0.246-0.397,0.247-0.631c0.002-0.234-0.087-0.459-0.247-0.628C53.139,2.494,52.925,2.4,52.7,2.398z M53.01,3.791
	c-0.093,0.129-0.231,0.194-0.412,0.194c-0.11,0-0.208-0.035-0.294-0.104c-0.09-0.075-0.157-0.173-0.196-0.284v-0.62
	c0.04-0.109,0.107-0.205,0.196-0.279c0.083-0.068,0.187-0.105,0.294-0.104c0.181,0,0.319,0.063,0.412,0.191
	c0.093,0.129,0.14,0.295,0.14,0.502C53.15,3.494,53.103,3.661,53.01,3.791z"/>
<path d="M55.881,2.577c0.127,0,0.189,0.038,0.189,0.112c-0.006,0.061-0.022,0.12-0.048,0.174l-0.31,0.776l-0.354-0.776
	c-0.039-0.081-0.058-0.142-0.058-0.184c0-0.068,0.071-0.102,0.214-0.102V2.481h-0.859v0.096c0.067-0.003,0.133,0.018,0.184,0.061
	c0.061,0.066,0.109,0.142,0.14,0.226l0.557,1.207l-0.243,0.607c-0.033,0.088-0.068,0.157-0.107,0.209
	c-0.038,0.052-0.085,0.105-0.14,0.16c-0.034,0.029-0.064,0.063-0.09,0.099c-0.018,0.03-0.027,0.064-0.026,0.099
	c0,0.055,0.016,0.096,0.048,0.122c0.032,0.025,0.071,0.039,0.112,0.038c0.035,0,0.069-0.017,0.102-0.051
	c0.034-0.037,0.061-0.081,0.078-0.128l0.946-2.361c0.029-0.085,0.079-0.161,0.145-0.221c0.056-0.045,0.127-0.068,0.199-0.066V2.481
	H55.88C55.88,2.481,55.88,2.577,55.881,2.577z"/>
<polygon class="st0" points="60.532,6.184 61.419,6.184 61.419,3.554 62.24,3.554 62.24,2.643 61.419,2.643 61.419,1.058 
	62.643,1.058 62.643,0.145 60.532,0.145 "/>
<rect x="63.086" y="0.145" class="st0" width="0.887" height="6.037"/>
<polygon class="st0" points="66.484,3.57 66.435,3.57 66.362,3.291 65.5,0.145 64.711,0.145 64.711,6.182 65.525,6.182 
	65.525,2.757 65.575,2.757 65.647,3.036 66.508,6.182 67.297,6.182 67.297,0.145 66.484,0.145 "/>
<line class="st0" x1="68.037" y1="6.184" x2="68.037" y2="6.182"/>
<path class="st0" d="M68.736,0.145h-0.698v6.037h0.698c0.821,0,1.265-0.164,1.503-0.624c0.23-0.459,0.262-1.207,0.262-2.39
	c0-1.182-0.033-1.938-0.262-2.398C70.001,0.309,69.557,0.145,68.736,0.145z M69.574,4.328c-0.002,0.216-0.029,0.431-0.083,0.64
	c-0.09,0.295-0.262,0.328-0.567,0.328V1.033c0.304,0,0.476,0.033,0.567,0.32c0.053,0.209,0.081,0.424,0.083,0.64
	c0.008,0.287,0.008,0.673,0.008,1.166C69.582,3.653,69.582,4.04,69.574,4.328z"/>
<path class="st0" d="M72.686,2.864C72.514,2.61,72.34,2.371,72.21,2.141c-0.131-0.231-0.222-0.443-0.222-0.649
	c0-0.353,0.075-0.592,0.304-0.6c0.139,0,0.23,0.115,0.287,0.279c0.058,0.173,0.066,0.395,0.066,0.592l0.869-0.082
	c0-0.337-0.049-0.74-0.222-1.068c-0.172-0.32-0.484-0.542-1.018-0.534c-0.356-0.003-0.691,0.169-0.895,0.46
	c-0.189,0.27-0.262,0.624-0.262,0.952c0,0.165,0.025,0.328,0.074,0.485c0.098,0.332,0.244,0.648,0.435,0.937
	c0.197,0.303,0.386,0.583,0.559,0.829c0.081,0.123,0.156,0.245,0.23,0.361c0.131,0.238,0.23,0.468,0.23,0.665
	c0,0.386-0.098,0.665-0.361,0.665c-0.189,0-0.287-0.131-0.345-0.328c-0.066-0.189-0.074-0.443-0.074-0.698l-0.871,0.084
	c0,0.452,0.041,0.888,0.222,1.216s0.501,0.542,1.068,0.542c0.484,0,0.788-0.181,0.977-0.46c0.189-0.279,0.255-0.657,0.255-1.06
	c0-0.328-0.106-0.64-0.262-0.945C73.097,3.481,72.891,3.169,72.686,2.864z"/>
<path class="st0" d="M75.882,0.285c-0.165-0.123-0.387-0.206-0.682-0.206c-0.246-0.008-0.489,0.064-0.69,0.206
	c-0.151,0.119-0.27,0.274-0.345,0.451c-0.094,0.204-0.144,0.425-0.148,0.649v3.556c0.003,0.227,0.054,0.451,0.147,0.657
	c0.075,0.175,0.194,0.328,0.345,0.443c0.164,0.132,0.394,0.206,0.69,0.206s0.518-0.075,0.682-0.206
	c0.153-0.115,0.275-0.268,0.353-0.443c0.094-0.206,0.145-0.43,0.148-0.657h0.001V1.386c-0.008-0.239-0.058-0.46-0.148-0.649
	C76.16,0.573,76.046,0.409,75.882,0.285z M75.494,4.943c0.004,0.075-0.007,0.151-0.033,0.222c-0.033,0.123-0.106,0.222-0.262,0.222
	c-0.064,0.003-0.127-0.021-0.173-0.066c-0.083-0.091-0.123-0.206-0.123-0.378V1.386c-0.003-0.075,0.009-0.15,0.033-0.222
	c0.033-0.106,0.106-0.222,0.262-0.222c0.067-0.003,0.132,0.021,0.181,0.066c0.083,0.098,0.115,0.214,0.115,0.378V4.943z"/>
<polygon class="st0" points="78.771,2.905 78.73,3.225 78.714,3.225 78.674,2.905 78.147,0.145 77.063,0.145 77.063,6.184 
	77.884,6.184 77.884,2.135 77.934,2.135 77.966,2.388 78.533,6.184 78.533,6.182 78.911,6.182 79.479,2.387 79.512,2.133 
	79.561,2.133 79.561,6.182 80.382,6.182 80.382,0.145 79.298,0.145 "/>
<polygon class="st0" points="81.119,6.182 83.147,6.182 83.147,5.271 82.007,5.271 82.007,3.612 82.827,3.612 82.827,2.641 
	82.007,2.641 82.007,1.057 83.147,1.057 83.147,0.145 81.119,0.145 "/>
<path class="st1" d="M91.002,1.168c-0.155,0-0.357,0.124-0.357,0.337c0,0.038,0.01,0.068,0.109,0.067c0.376,0,0.81,0.087,0.81,0.607
	c0,0.318-0.212,0.54-0.54,0.54c-0.714,0-1.419-0.454-1.881-0.454c-0.666,0-1.293,0.405-1.293,1.187
	c0.022,0.31,0.233,0.575,0.531,0.665c0.078,0.024,0.159,0.037,0.241,0.038c0.135,0,0.299-0.126,0.299-0.222
	c0-0.038-0.04-0.068-0.155-0.087c-0.299-0.058-0.704-0.096-0.704-0.559c0-0.356,0.26-0.55,0.627-0.55
	c0.347,0,0.839,0.174,1.099,0.27c0.077,0.029,0.115,0.415,0.115,0.618c0,1.572-1.187,2.045-1.997,2.045
	c-1.09,0-1.977-0.693-1.977-1.822c0-0.81,0.501-1.023,0.55-1.023c0.039,0,0.232,0.135,0.386,0.135c0.164,0,0.588-0.193,0.588-0.415
	c0-0.067-0.058-0.115-0.183-0.115c-0.173,0-0.29,0.049-0.531,0.049c-0.309,0-0.569-0.405-0.569-0.868c0-0.569,0.482-1.08,1.042-1.08
	c0.376,0,0.646,0.106,0.935,0.415c0.058,0.068,0.115,0.174,0.202,0.087c0.127-0.136,0.2-0.315,0.203-0.501
	c0-0.213-0.173-0.319-0.356-0.396c-0.25-0.106-0.463-0.155-0.753-0.155c-1.014,0-1.572,0.771-1.572,1.611
	c0,0.733,0.434,0.965,0.434,1.042c0,0.087-0.897,0.511-0.897,1.61c0,1.129,0.771,2.016,2.131,2.016c1.958,0,2.653-1.775,2.653-2.749
	c0-0.086-0.009-0.231-0.009-0.299c0-0.106,0.058-0.077,0.126-0.068c0.077,0.019,0.26,0.029,0.356,0.029
	c0.26,0,0.723-0.182,0.925-0.52c0.096-0.154,0.164-0.386,0.164-0.627C91.754,1.688,91.561,1.168,91.002,1.168z"/>
<polygon class="st0" points="96.311,3.284 96.295,3.481 96.229,3.481 96.203,3.284 95.826,0.146 95.186,0.146 94.809,3.284 
	94.784,3.481 94.717,3.481 94.701,3.284 94.349,0.146 93.528,0.146 94.34,6.184 95.031,6.184 95.442,3.326 95.491,2.972 
	95.522,2.972 95.573,3.326 95.984,6.184 96.674,6.184 97.485,0.146 96.664,0.146 "/>
<rect x="97.995" y="0.145" class="st0" width="0.887" height="6.037"/>
<polygon class="st0" points="101.395,3.57 101.347,3.57 101.272,3.291 100.41,0.145 99.622,0.145 99.622,6.182 100.435,6.182 
	100.435,2.757 100.485,2.757 100.558,3.036 101.42,6.182 102.209,6.182 102.209,0.145 101.395,0.145 "/>
<polygon class="st0" points="104.654,2.905 104.614,3.225 104.598,3.225 104.557,2.905 104.031,0.145 102.947,0.145 102.947,6.184 
	103.769,6.184 103.769,2.135 103.818,2.135 103.851,2.388 104.418,6.184 104.418,6.182 104.796,6.182 105.362,2.387 105.395,2.133 
	105.444,2.133 105.444,6.182 106.265,6.182 106.265,0.145 105.18,0.145 "/>
<path class="st0" d="M108.811,0.285c-0.165-0.123-0.387-0.206-0.682-0.206c-0.246-0.008-0.489,0.064-0.69,0.206
	c-0.151,0.119-0.27,0.274-0.345,0.451c-0.094,0.204-0.144,0.425-0.148,0.649v3.556c0.004,0.227,0.054,0.451,0.148,0.657
	c0.075,0.175,0.194,0.328,0.345,0.443c0.164,0.132,0.394,0.206,0.69,0.206c0.296,0,0.518-0.075,0.682-0.206
	c0.153-0.115,0.275-0.268,0.353-0.443c0.094-0.206,0.145-0.43,0.148-0.657V1.386c-0.008-0.239-0.058-0.46-0.148-0.649
	C109.09,0.573,108.975,0.409,108.811,0.285z M108.424,1.386v3.556c0.004,0.075-0.007,0.151-0.033,0.222
	c-0.033,0.123-0.106,0.222-0.262,0.222c-0.064,0.002-0.126-0.021-0.172-0.066c-0.083-0.091-0.123-0.206-0.123-0.378V1.386
	c-0.003-0.075,0.009-0.15,0.033-0.222c0.033-0.106,0.106-0.222,0.262-0.222c0.067-0.003,0.132,0.021,0.181,0.066
	C108.393,1.106,108.424,1.222,108.424,1.386L108.424,1.386z"/>
<path class="st0" d="M112.391,1.886c0-1.141-0.451-1.741-1.511-1.741h-0.887v6.038h0.887V3.637h0.239l0.46,2.546V6.182h0.887
	l-0.567-2.924C112.235,3.027,112.391,2.485,112.391,1.886z M111.299,2.683c-0.119,0.093-0.268,0.14-0.419,0.131v-1.79
	c0.122,0,0.287,0.008,0.419,0.123c0.132,0.115,0.239,0.345,0.239,0.773C111.536,2.346,111.43,2.568,111.299,2.683z"/>
<polygon class="st0" points="115.07,1.057 115.07,0.145 113.041,0.145 113.041,6.182 115.07,6.182 115.07,5.271 113.929,5.271 
	113.929,3.612 114.75,3.612 114.75,2.641 113.929,2.641 113.929,1.057 "/>
<g>
	<path d="M0.001,3.324C0.147,3.273,0.263,3.226,0.35,3.181c0.086-0.045,0.162-0.115,0.227-0.21C0.641,2.876,0.692,2.74,0.728,2.564
		c0.036-0.177,0.054-0.408,0.054-0.693c0-0.252,0.034-0.47,0.101-0.655s0.158-0.343,0.273-0.475C1.271,0.61,1.397,0.499,1.534,0.409
		s0.312-0.193,0.525-0.311c0.129-0.072,0.199-0.111,0.21-0.117l0.143,0.176C2.222,0.291,2.068,0.406,1.95,0.501
		c-0.118,0.096-0.22,0.202-0.307,0.32c-0.087,0.117-0.154,0.26-0.201,0.428c-0.048,0.168-0.071,0.37-0.071,0.605
		c0,0.297-0.017,0.539-0.05,0.727C1.286,2.768,1.234,2.915,1.165,3.022c-0.07,0.106-0.157,0.186-0.26,0.239
		C0.801,3.314,0.665,3.36,0.497,3.399c0.168,0.039,0.304,0.085,0.407,0.139c0.104,0.053,0.19,0.132,0.26,0.235
		c0.07,0.104,0.122,0.251,0.155,0.441c0.034,0.19,0.05,0.434,0.05,0.731c0,0.235,0.024,0.435,0.071,0.601
		c0.049,0.165,0.116,0.309,0.203,0.432C1.73,6.101,1.832,6.21,1.95,6.302s0.272,0.206,0.462,0.34L2.269,6.818
		C2.247,6.802,2.174,6.759,2.051,6.693C1.838,6.575,1.664,6.471,1.53,6.382C1.396,6.292,1.271,6.182,1.156,6.054
		C1.041,5.925,0.95,5.768,0.883,5.585C0.816,5.398,0.782,5.181,0.782,4.929c0-0.286-0.018-0.517-0.055-0.693
		C0.691,4.059,0.64,3.923,0.572,3.828C0.505,3.734,0.43,3.663,0.346,3.618C0.262,3.573,0.147,3.525,0.001,3.475l-0.025-0.008V3.332
		L0.001,3.324z"/>
	<path d="M119.407,3.475c-0.151,0.05-0.27,0.098-0.357,0.143c-0.087,0.045-0.162,0.113-0.227,0.206
		c-0.065,0.092-0.115,0.227-0.151,0.403c-0.037,0.176-0.055,0.41-0.055,0.701c0,0.252-0.034,0.472-0.101,0.659
		c-0.067,0.188-0.158,0.346-0.273,0.475c-0.115,0.129-0.239,0.237-0.374,0.323c-0.134,0.087-0.311,0.192-0.529,0.315
		c-0.084,0.045-0.157,0.084-0.218,0.118l-0.134-0.176c0.196-0.134,0.351-0.248,0.466-0.34c0.115-0.092,0.214-0.199,0.298-0.319
		c0.084-0.12,0.15-0.265,0.197-0.433c0.048-0.168,0.071-0.37,0.071-0.605c0-0.297,0.017-0.539,0.05-0.727
		c0.034-0.188,0.087-0.335,0.16-0.441c0.073-0.106,0.16-0.186,0.26-0.239c0.101-0.053,0.235-0.099,0.403-0.139
		c-0.168-0.039-0.304-0.085-0.407-0.139c-0.104-0.053-0.19-0.133-0.26-0.239c-0.07-0.106-0.122-0.253-0.155-0.441
		c-0.034-0.188-0.05-0.43-0.05-0.727c0-0.235-0.024-0.437-0.071-0.605c-0.048-0.168-0.113-0.312-0.197-0.433
		c-0.084-0.12-0.183-0.227-0.298-0.319s-0.27-0.206-0.466-0.34l0.134-0.175c0.045,0.028,0.115,0.067,0.21,0.118
		c0.218,0.123,0.395,0.228,0.529,0.315s0.26,0.195,0.378,0.323c0.118,0.129,0.21,0.286,0.277,0.47
		c0.067,0.185,0.101,0.406,0.101,0.664c0,0.291,0.018,0.524,0.055,0.697c0.036,0.174,0.087,0.308,0.151,0.403s0.14,0.165,0.227,0.21
		s0.206,0.092,0.357,0.143l0.017,0.008v0.134L119.407,3.475z"/>
</g>
</svg>
